<svg id="visual" viewBox="0 0 900 600" width="900" height="600" xmlns="http://www.w3.org/2000/svg" xmlns:xlink="http://www.w3.org/1999/xlink" version="1.1"><rect x="0" y="0" width="900" height="600" fill="#2844d1"></rect><path d="M0 446L21.5 441.7C43 437.3 86 428.7 128.8 431.5C171.7 434.3 214.3 448.7 257.2 450C300 451.3 343 439.7 385.8 425.2C428.7 410.7 471.3 393.3 514.2 384.7C557 376 600 376 642.8 385.8C685.7 395.7 728.3 415.3 771.2 438C814 460.7 857 486.3 878.5 499.2L900 512L900 601L878.5 601C857 601 814 601 771.2 601C728.3 601 685.7 601 642.8 601C600 601 557 601 514.2 601C471.3 601 428.7 601 385.8 601C343 601 300 601 257.2 601C214.3 601 171.7 601 128.8 601C86 601 43 601 21.5 601L0 601Z" fill="#ffffff" stroke-linecap="round" stroke-linejoin="miter"></path></svg>